<svg width="145" height="268" viewBox="0 0 145 268" fill="none" xmlns="http://www.w3.org/2000/svg">
<path d="M11.4232 265.759C6.26545 264.368 -0.0115503 258.582 1.33229 250.629C1.99876 246.684 4.55677 244.131 7.20913 242.48C10.8779 240.197 15.0562 239.336 19.0827 239.119C23.7271 238.868 28.3663 239.5 32.976 240.169C37.5267 240.829 42.0778 241.42 46.6488 241.781C64.5355 243.182 82.5314 241.848 100.015 237.824C104.33 236.829 108.619 235.663 112.882 234.324C116.922 233.136 120.872 231.662 124.702 229.912C129.77 227.482 138.013 222.753 137.341 213.995C136.985 209.351 134.246 205.642 131.484 203.058C128.144 199.934 124.28 197.879 120.495 195.882C102.889 186.597 85.2484 177.422 67.6253 168.193C63.5122 166.039 59.3718 163.943 55.3801 161.418C51.6429 159.055 47.9231 156.31 44.9156 152.514C42.2887 149.199 39.9414 144.748 40.0242 139.773C40.0929 135.646 41.9731 132.145 44.2758 129.528C49.977 123.05 58.0419 120.423 65.331 119.047C74.3869 117.337 83.5738 117.346 92.6356 115.696C99.9524 114.363 107.77 111.79 113.721 105.76C116.238 103.308 118.019 100.201 118.861 96.7916C119.621 93.2204 119.252 89.5016 117.804 86.149C116.192 82.304 113.621 79.241 110.917 76.7329C107.812 73.8919 104.289 71.5418 100.472 69.764C92.4352 65.9393 83.984 63.948 75.7516 61.0129C71.7142 59.5735 67.6361 57.9951 63.8871 55.5226C60.711 53.4279 57.2511 50.6045 55.4841 46.4058C51.8382 37.7429 60.536 32.5799 65.4644 30.6243C68.8143 29.3554 72.2646 28.369 75.7793 27.6754C76.5224 27.516 76.2071 26.0346 75.4674 26.1932C71.7678 26.9135 68.1421 27.9708 64.6356 29.3518C61.6636 30.5849 58.5971 32.2055 56.2627 34.9942C55.1998 36.2533 54.414 37.7215 53.9562 39.3036C53.4983 40.8857 53.3788 42.5462 53.6053 44.1774C54.2236 48.334 56.9114 51.5367 59.4358 53.8565C62.774 56.9242 66.5801 58.9276 70.4391 60.5607C74.5034 62.2807 78.6539 63.6211 82.803 64.9359C91.0938 67.5632 99.7566 69.9045 107.241 75.4951C112.476 79.4059 119.589 86.7386 117.847 95.8275C117.074 99.8621 114.727 103.017 112.193 105.337C109.218 107.981 105.787 110.064 102.067 111.485C85.4819 118.151 67.2286 113.384 51.0706 122.438C45.5769 125.516 38.9039 131.12 38.8502 139.939C38.8223 144.519 40.661 148.721 42.9341 152.041C45.6568 156.019 49.1824 158.96 52.7695 161.418C56.5466 163.912 60.4684 166.179 64.5144 168.209C68.9344 170.527 73.3552 172.843 77.7771 175.155L104.611 189.208L117.944 196.19C122.013 198.322 126.187 200.366 129.887 203.494C132.916 206.055 136.495 210.258 136.186 215.476C135.941 219.619 133.184 222.61 130.665 224.609C127.404 227.198 123.74 228.873 120.094 230.264C115.889 231.869 111.615 233.201 107.333 234.398C98.5608 236.846 89.6083 238.596 80.5594 239.631C71.5329 240.669 62.4395 241.007 53.3607 240.643C48.7735 240.459 44.1935 240.093 39.6205 239.544C34.9068 238.977 30.2133 238.104 25.4874 237.716C21.2127 237.366 16.8969 237.447 12.6872 238.573C9.17224 239.514 5.45874 241.191 2.79057 244.463C0.82395 246.96 -0.160859 250.09 0.0214463 253.262C0.202094 256.427 1.33228 259.466 3.26507 261.981C5.22829 264.55 7.98681 266.4 11.1115 267.241C11.8483 267.44 12.1634 265.959 11.4233 265.759L11.4232 265.759Z" fill="#E6E6E6"/>
<path d="M144.411 266.461H10.3995V267.386H144.411V266.461Z" fill="#3F3D56"/>
<path d="M133.673 222.865C138.508 222.865 142.428 218.951 142.428 214.123C142.428 209.294 138.508 205.38 133.673 205.38C128.838 205.38 124.919 209.294 124.919 214.123C124.919 218.951 128.838 222.865 133.673 222.865Z" fill="#E6E6E6"/>
<path d="M117.702 99.6407C122.537 99.6407 126.456 95.7265 126.456 90.898C126.456 86.0695 122.537 82.1552 117.702 82.1552C112.867 82.1552 108.947 86.0695 108.947 90.898C108.947 95.7265 112.867 99.6407 117.702 99.6407Z" fill="#E6E6E6"/>
<path d="M97.9085 0.752029L73.5999 11.3053C72.5263 11.7728 71.6823 12.6465 71.2529 13.7348C70.8236 14.823 70.844 16.0369 71.3098 17.1101L78.858 34.4499C79.3261 35.5221 80.201 36.365 81.2907 36.7938C82.3805 37.2226 83.596 37.2022 84.6706 36.737L108.979 26.1838C110.053 25.7163 110.897 24.8425 111.326 23.7543C111.756 22.666 111.735 21.4521 111.269 20.3789L103.721 3.03912C103.253 1.96696 102.378 1.12403 101.288 0.695263C100.199 0.266499 98.9832 0.286915 97.9085 0.752029V0.752029ZM98.9149 3.064C99.0603 3.00157 99.213 2.95767 99.3693 2.93334L91.1509 18.4182L74.2711 13.8052C74.3762 13.7313 74.4885 13.6684 74.6064 13.6173L98.9149 3.064ZM107.973 23.8718L83.6642 34.4251C83.2037 34.6244 82.6827 34.6331 82.2157 34.4494C81.7487 34.2656 81.3737 33.9044 81.1731 33.4449L73.6927 16.2608L91.4597 21.1163C91.7363 21.1919 92.0305 21.1711 92.2938 21.0574C92.5571 20.9437 92.7737 20.7439 92.908 20.4908L101.51 4.28298L108.954 21.384C109.154 21.8439 109.163 22.3642 108.979 22.8306C108.795 23.297 108.433 23.6714 107.973 23.8718V23.8718Z" fill="#E6E6E6"/>
<path d="M70.6435 151.16C82.8678 151.16 92.7775 141.264 92.7775 129.056C92.7775 116.848 82.8678 106.952 70.6435 106.952C58.4191 106.952 48.5094 116.848 48.5094 129.056C48.5094 141.264 58.4191 151.16 70.6435 151.16Z" fill="#7D5FFF"/>
<path d="M67.1559 266.733H61.0516C60.3389 266.732 59.6556 266.449 59.1517 265.946C58.6477 265.443 58.3642 264.76 58.3634 264.048V213.242C58.3642 212.53 58.6477 211.848 59.1517 211.344C59.6556 210.841 60.3389 210.558 61.0516 210.557H67.1559C67.8686 210.558 68.5519 210.841 69.0558 211.344C69.5598 211.848 69.8433 212.53 69.8441 213.242V264.048C69.8433 264.76 69.5598 265.443 69.0558 265.946C68.5519 266.449 67.8686 266.732 67.1559 266.733Z" fill="#2F2E41"/>
<path d="M79.229 266.733H73.1247C72.412 266.732 71.7288 266.449 71.2248 265.946C70.7208 265.443 70.4373 264.76 70.4365 264.048V213.242C70.4373 212.53 70.7208 211.848 71.2248 211.344C71.7288 210.841 72.412 210.558 73.1247 210.557H79.229C79.9417 210.558 80.625 210.841 81.1289 211.344C81.6329 211.848 81.9164 212.53 81.9172 213.242V264.048C81.9164 264.76 81.6329 265.443 81.1289 265.946C80.625 266.449 79.9417 266.732 79.229 266.733Z" fill="#2F2E41"/>
<path d="M104.524 207.929C104.256 207.929 103.99 207.889 103.733 207.81C103.395 207.708 103.081 207.539 102.809 207.314C102.536 207.09 102.311 206.814 102.147 206.502L78.2981 161.623C78.1326 161.312 78.0301 160.971 77.9966 160.62C77.963 160.269 77.999 159.915 78.1024 159.578C78.2059 159.241 78.3749 158.927 78.5996 158.655C78.8244 158.384 79.1006 158.159 79.4124 157.993L84.8042 155.136C85.116 154.97 85.4574 154.868 85.8088 154.834C86.1603 154.801 86.5149 154.837 86.8525 154.94C87.19 155.043 87.5039 155.212 87.7761 155.437C88.0484 155.661 88.2736 155.937 88.4391 156.249L112.287 201.127C112.453 201.439 112.555 201.78 112.589 202.13C112.623 202.481 112.587 202.836 112.483 203.173C112.38 203.51 112.211 203.823 111.986 204.095C111.761 204.367 111.485 204.592 111.173 204.757L105.781 207.614C105.394 207.821 104.963 207.929 104.524 207.929V207.929Z" fill="#7D5FFF"/>
<path d="M54.8778 166.563C54.5553 166.563 54.2353 166.504 53.9336 166.39H53.9332L6.34019 148.435C6.01007 148.31 5.70777 148.122 5.4506 147.881C5.19343 147.639 4.98643 147.35 4.84142 147.028C4.69641 146.707 4.61624 146.36 4.60549 146.008C4.59475 145.656 4.65364 145.305 4.7788 144.975L6.93188 139.273C7.186 138.607 7.69356 138.07 8.34354 137.777C8.99352 137.485 9.733 137.462 10.4002 137.712L57.9922 155.664C58.6578 155.917 59.1961 156.423 59.4895 157.071C59.7829 157.719 59.8075 158.456 59.558 159.123L57.4009 164.826C57.206 165.337 56.8604 165.776 56.4099 166.086C55.9593 166.396 55.425 166.563 54.8778 166.563V166.563Z" fill="#7D5FFF"/>
<path d="M84.2595 155.001H56.5243C55.1538 155.001 54.0428 156.11 54.0428 157.479V216.323C54.0428 217.692 55.1538 218.802 56.5243 218.802H84.2595C85.6299 218.802 86.7409 217.692 86.7409 216.323V157.479C86.7409 156.11 85.6299 155.001 84.2595 155.001Z" fill="#2F2E41"/>
<path d="M86.9924 107.41C88.2928 110.26 89.5378 113.704 88.1379 116.753C87.6243 117.985 86.6609 118.975 85.443 119.524C84.0003 120.098 82.4277 119.77 81.0908 119.076C78.2759 117.613 76.4616 114.894 73.9483 113.032C72.8042 112.142 71.4511 111.56 70.0177 111.34C68.3663 111.125 66.7269 111.514 65.1116 111.815C63.3937 112.134 61.6182 112.303 60.0283 111.433C58.6295 110.616 57.5348 109.367 56.9096 107.874C56.5822 107.149 55.5127 107.778 55.8383 108.5C57.1903 111.497 59.9862 113.539 63.3456 113.303C65.1231 113.178 66.84 112.605 68.6206 112.523C70.2449 112.469 71.8379 112.978 73.1298 113.962C75.8892 115.927 77.762 118.943 80.9276 120.37C82.4212 121.043 84.1316 121.324 85.7064 120.744C87.0646 120.216 88.1962 119.232 88.9062 117.961C90.9837 114.389 89.6494 110.26 88.0637 106.784C87.7331 106.06 86.6634 106.689 86.9924 107.41V107.41Z" fill="#2F2E41"/>
<path d="M73.0904 136.437C71.7233 136.398 70.0213 136.351 68.7107 135.394C68.3204 135.098 67.9997 134.72 67.7711 134.287C67.5425 133.854 67.4114 133.376 67.3872 132.887C67.3635 132.539 67.4206 132.191 67.554 131.869C67.6875 131.547 67.8937 131.26 68.1566 131.031C68.8408 130.453 69.8404 130.317 70.9187 130.634L69.802 122.487L70.6219 122.375L71.9341 131.952L71.2499 131.639C70.4571 131.276 69.3674 131.09 68.6905 131.662C68.5244 131.811 68.395 131.996 68.3123 132.204C68.2297 132.411 68.196 132.635 68.2139 132.857C68.234 133.221 68.3323 133.577 68.5022 133.899C68.6721 134.222 68.9096 134.505 69.1986 134.727C70.2188 135.471 71.575 135.568 73.1138 135.611L73.0904 136.437Z" fill="#2F2E41"/>
<path d="M65.7495 123.189H61.2947V124.015H65.7495V123.189Z" fill="#2F2E41"/>
<path d="M79.811 123.189H75.3562V124.015H79.811V123.189Z" fill="#2F2E41"/>
<path d="M54.0062 166.197L34.4469 160.241C33.8369 160.056 33.3219 159.642 33.0088 159.087C32.6957 158.533 32.6086 157.879 32.7655 157.261L35.0488 148.276C35.139 147.922 35.3069 147.591 35.5403 147.309C35.7737 147.026 36.0669 146.799 36.3987 146.643C36.7306 146.487 37.0929 146.407 37.4595 146.408C37.8262 146.409 38.1881 146.491 38.5193 146.648L57.9192 155.857C58.534 156.09 59.0313 156.557 59.3022 157.155C59.5732 157.754 59.5956 158.435 59.3647 159.05L57.2073 164.753C56.9741 165.368 56.506 165.866 55.9058 166.137C55.3057 166.407 54.6225 166.429 54.0062 166.197V166.197Z" fill="#2F2E41"/>
<path d="M78.6496 161.115L87.0379 179.738C87.2996 180.319 87.7751 180.777 88.3658 181.017C88.9565 181.257 89.6171 181.261 90.2105 181.027L98.8468 177.63C99.1879 177.496 99.4951 177.287 99.7461 177.021C99.9971 176.754 100.186 176.434 100.298 176.086C100.411 175.738 100.445 175.369 100.398 175.005C100.351 174.642 100.224 174.294 100.026 173.986L88.4264 155.931C88.1172 155.352 87.5907 154.918 86.962 154.725C86.3334 154.533 85.6539 154.596 85.0723 154.903L79.6793 157.761C79.0979 158.07 78.6629 158.596 78.4698 159.225C78.2768 159.854 78.3414 160.533 78.6496 161.115V161.115Z" fill="#2F2E41"/>
</svg>
