<svg width="63" height="51" viewBox="0 0 63 51" fill="none" xmlns="http://www.w3.org/2000/svg">
<path d="M60.7559 12.5947L3.25575 0.207673L2.50849 0.0470701C2.12794 -0.0354685 1.73181 -0.00907205 1.36562 0.123225C0.999433 0.255522 0.678071 0.488339 0.43849 0.794917C0.198909 1.1015 0.0508321 1.46938 0.011299 1.85626C-0.0282341 2.24314 0.042385 2.6333 0.215018 2.98189L23.0449 49.2816C23.1927 49.579 23.4098 49.8367 23.6781 50.0329C23.9464 50.229 24.2579 50.3579 24.5865 50.4088C24.9161 50.46 25.2532 50.4303 25.5688 50.3222C25.8843 50.2142 26.1688 50.031 26.3976 49.7886L42.2547 33.0912C42.3675 32.9694 42.5043 32.8722 42.6565 32.8059C42.8088 32.7395 42.9731 32.7053 43.1392 32.7054C43.365 32.7022 43.5874 32.7604 43.7826 32.8737C43.9778 32.9871 44.1385 33.1513 44.2475 33.3489L47.4954 39.3484C47.7028 39.7485 48.0382 40.0677 48.4482 40.2554C48.8583 40.443 49.3194 40.4883 49.7582 40.384L49.7743 40.3804C50.2185 40.2864 50.618 40.0461 50.9089 39.698C51.1997 39.3498 51.3649 38.9142 51.3778 38.461L52.0284 24.6118C52.0362 24.439 52.0794 24.2697 52.1554 24.1142C52.237 23.9604 52.3477 23.8239 52.4814 23.7122L61.6295 16.2129C61.9302 15.9664 62.1553 15.6403 62.2789 15.272C62.4026 14.9036 62.4198 14.5079 62.3286 14.1303C62.2374 13.7526 62.0415 13.4082 61.7633 13.1366C61.4852 12.865 61.136 12.6772 60.7559 12.5947H60.7559ZM61.1071 15.5754L51.959 23.0748C51.8398 23.1706 51.7318 23.2796 51.637 23.3997C51.5515 23.5064 51.4777 23.622 51.4168 23.7444C51.353 23.8697 51.3027 24.0013 51.2668 24.1371L51.2677 24.1412C51.2298 24.2827 51.2079 24.428 51.2026 24.5743L50.5521 38.4234C50.5467 38.6957 50.4486 38.9581 50.274 39.1673C50.0994 39.3766 49.8587 39.5203 49.5915 39.5748L49.5834 39.5765C49.3201 39.6419 49.0424 39.6164 48.7954 39.5044C48.5484 39.3924 48.3465 39.2003 48.2225 38.9593L44.9736 32.9557C44.8062 32.6469 44.5626 32.386 44.2658 32.1976C43.9691 32.0093 43.6291 31.8997 43.278 31.8795L43.2741 31.8803C43.2269 31.8781 43.1798 31.8758 43.1337 31.8775C42.8061 31.8777 42.4836 31.9577 42.194 32.1106C41.9917 32.2156 41.809 32.3547 41.6541 32.5217L25.7971 49.2191C25.6595 49.3637 25.489 49.473 25.3001 49.5376C25.1111 49.6023 24.9093 49.6205 24.7119 49.5907C24.5144 49.5608 24.327 49.4838 24.1657 49.3661C24.0044 49.2485 23.874 49.0937 23.7854 48.9149L0.955494 2.61525C0.853432 2.40605 0.812256 2.17243 0.836665 1.94101C0.861073 1.70958 0.950079 1.48965 1.09354 1.30628C1.23701 1.12291 1.42917 0.98348 1.64812 0.903856C1.86707 0.824231 2.10402 0.80762 2.33197 0.855922L3.09698 1.02101L60.5792 13.4036C60.8074 13.4529 61.0171 13.5655 61.1843 13.7283C61.3515 13.8911 61.4693 14.0977 61.5244 14.3243C61.5795 14.5509 61.5696 14.7885 61.4958 15.0097C61.422 15.231 61.2873 15.427 61.1071 15.5754V15.5754Z" fill="#3F3D56"/>
<path d="M51.8204 23.4818L51.4787 24.2341L51.2676 24.1411L51.2667 24.1371L2.81994 2.199L43.274 31.8803L43.2779 31.8794L43.3851 31.9615L42.8973 32.6276L42.1939 32.1106L2.32822 2.86598C2.17144 2.75336 2.059 2.58956 2.01035 2.40292C1.9617 2.21627 1.9799 2.01851 2.06179 1.84384C2.14369 1.66918 2.28414 1.52858 2.45885 1.44638C2.63355 1.36418 2.83153 1.34553 3.01855 1.39367C3.06437 1.40484 3.10898 1.42047 3.15174 1.44034L51.6369 23.3996L51.8204 23.4818Z" fill="#3F3D56"/>
<path d="M60.7559 12.5947L3.25575 0.207673L2.50849 0.0470701C2.12794 -0.0354685 1.73181 -0.00907205 1.36562 0.123225C0.999433 0.255522 0.678071 0.488339 0.43849 0.794917C0.198909 1.1015 0.0508321 1.46938 0.011299 1.85626C-0.0282341 2.24314 0.042385 2.6333 0.215018 2.98189L23.0449 49.2816C23.1927 49.579 23.4098 49.8367 23.6781 50.0329C23.9464 50.229 24.2579 50.3579 24.5865 50.4088C24.9161 50.46 25.2532 50.4303 25.5688 50.3222C25.8843 50.2142 26.1688 50.031 26.3976 49.7886L42.2547 33.0912C42.3675 32.9694 42.5043 32.8722 42.6565 32.8059C42.8088 32.7395 42.9731 32.7053 43.1392 32.7054C43.365 32.7022 43.5874 32.7604 43.7826 32.8737C43.9778 32.9871 44.1385 33.1513 44.2475 33.3489L47.4954 39.3484C47.7028 39.7485 48.0382 40.0677 48.4482 40.2554C48.8583 40.443 49.3194 40.4883 49.7582 40.384L49.7743 40.3804C50.2185 40.2864 50.618 40.0461 50.9089 39.698C51.1997 39.3498 51.3649 38.9142 51.3778 38.461L52.0284 24.6118C52.0362 24.439 52.0794 24.2697 52.1554 24.1142C52.237 23.9604 52.3477 23.8239 52.4814 23.7122L61.6295 16.2129C61.9302 15.9664 62.1553 15.6403 62.2789 15.272C62.4026 14.9036 62.4198 14.5079 62.3286 14.1303C62.2374 13.7526 62.0415 13.4082 61.7633 13.1366C61.4852 12.865 61.136 12.6772 60.7559 12.5947H60.7559ZM61.1071 15.5754L51.959 23.0748C51.8398 23.1706 51.7318 23.2796 51.637 23.3997L3.15183 1.44037C3.10906 1.4205 3.06446 1.40488 3.01864 1.39371C2.83162 1.34557 2.63364 1.36421 2.45893 1.44642C2.28423 1.52862 2.14378 1.66921 2.06188 1.84388C1.97999 2.01855 1.96179 2.21629 2.01044 2.40294C2.05909 2.58959 2.17153 2.7534 2.32831 2.86602L42.194 32.1106C41.9917 32.2156 41.809 32.3547 41.6541 32.5217L25.7971 49.2191C25.6595 49.3637 25.489 49.473 25.3001 49.5376C25.1111 49.6023 24.9093 49.6205 24.7119 49.5907C24.5144 49.5608 24.327 49.4838 24.1657 49.3661C24.0044 49.2485 23.8739 49.0937 23.7854 48.9149L0.955494 2.61525C0.853432 2.40605 0.812256 2.17243 0.836665 1.94101C0.861073 1.70958 0.950079 1.48965 1.09354 1.30628C1.23701 1.12291 1.42917 0.98348 1.64812 0.903856C1.86707 0.824231 2.10402 0.80762 2.33197 0.855922L3.09698 1.02101L60.5792 13.4036C60.8074 13.4529 61.0171 13.5655 61.1843 13.7283C61.3515 13.8911 61.4693 14.0977 61.5244 14.3243C61.5795 14.5509 61.5696 14.7885 61.4958 15.0097C61.422 15.231 61.2873 15.427 61.1071 15.5754V15.5754Z" fill="#7D5FFF"/>
</svg>
